<?xml version="1.0" encoding="UTF-8" standalone="no"?>
<!DOCTYPE svg PUBLIC "-//W3C//DTD SVG 1.1//EN" "http://www.w3.org/Graphics/SVG/1.1/DTD/svg11.dtd">
<svg width="100%" height="100%" viewBox="0 0 441 90" version="1.1" xmlns="http://www.w3.org/2000/svg" xmlns:xlink="http://www.w3.org/1999/xlink" xml:space="preserve" xmlns:serif="http://www.serif.com/" style="fill-rule:evenodd;clip-rule:evenodd;stroke-linejoin:round;stroke-miterlimit:2;">
    <g transform="matrix(0.415265,0,0,0.415265,-64.4023,-135.877)">
        <g transform="matrix(2.88229,0,0,2.88229,611.252,398.233)">
            <path d="M0,30.532C-6.973,17.524 -15.583,5.493 -25.593,-5.221L-28.495,-8.315L-31.403,-5.221C-41.562,5.693 -50.299,17.946 -57.372,31.193L-57.556,31.543L-57.333,31.876C-55.734,34.242 -53.891,36.375 -51.848,38.208L-51.136,38.847L-50.621,38.064C-50.559,37.975 -50.51,37.869 -50.394,37.614C-44.452,26.033 -37.087,15.158 -28.495,5.276C-19.985,15.074 -12.644,25.9 -6.672,37.458L-6.19,38.391L-5.396,37.653C-3.39,35.775 -1.583,33.609 -0.028,31.204L0.184,30.876L0,30.532Z" style="fill:rgb(0,174,191);fill-rule:nonzero;"/>
        </g>
        <g transform="matrix(0.361198,0,0,0.269383,320.827,-646.784)">
            <path d="M1178.26,4203.58C1167.4,4221.56 1155.59,4237.07 1142.83,4250.12C1130.06,4263.18 1116.73,4273.98 1102.85,4282.54C1088.96,4291.1 1074.76,4297.42 1060.23,4301.48C1045.71,4305.55 1031.27,4307.58 1016.9,4307.58C988.496,4307.58 961.844,4300.73 936.947,4287.04C912.05,4273.34 890.345,4254.51 871.831,4230.54C853.318,4206.58 838.635,4178.33 827.783,4145.8C816.93,4113.28 811.504,4078.18 811.504,4040.52C811.504,4003.71 816.851,3969.15 827.544,3936.84C838.236,3904.53 852.919,3876.39 871.592,3852.42C890.265,3828.45 912.05,3809.52 936.947,3795.61C961.844,3781.7 988.496,3774.74 1016.9,3774.74C1049.78,3774.74 1079.7,3783.73 1106.68,3801.7C1133.65,3819.68 1156.55,3843.65 1175.38,3873.61L1125.19,3942.3C1110.85,3916.19 1094.76,3897.47 1076.92,3886.12C1059.07,3874.78 1039.15,3869.11 1017.17,3869.11C999.002,3869.11 981.954,3873.61 966.022,3882.59C950.09,3891.58 936.147,3903.89 924.195,3919.51C912.243,3935.13 902.842,3953.32 895.992,3974.08C889.141,3994.83 885.716,4016.98 885.716,4040.52C885.716,4064.49 889.14,4086.85 895.988,4107.61C902.835,4128.36 912.232,4146.66 924.176,4162.49C936.121,4178.33 950.056,4190.74 965.981,4199.73C981.905,4208.72 998.945,4213.21 1017.1,4213.21C1034.3,4213.21 1050.54,4208.93 1065.83,4200.37C1081.12,4191.81 1094.81,4180.47 1106.92,4166.35L1106.92,4116.91L1028.39,4116.91L1028.39,4032.17L1178.26,4032.17L1178.26,4203.58Z" style="fill:rgb(0,174,191);fill-rule:nonzero;"/>
        </g>
        <g transform="matrix(0.361198,0,0,0.269383,320.827,-646.784)">
            <path d="M1627.36,4041.16C1627.36,4077.97 1622.02,4112.64 1611.34,4145.16C1600.66,4177.69 1586.07,4205.94 1567.58,4229.9C1549.09,4253.87 1527.57,4272.81 1503.02,4286.72C1478.47,4300.63 1452.33,4307.58 1424.59,4307.58C1396.86,4307.58 1370.63,4300.63 1345.92,4286.72C1321.21,4272.81 1299.62,4253.87 1281.12,4229.9C1262.63,4205.94 1248.05,4177.8 1237.37,4145.48C1226.69,4113.17 1221.35,4078.4 1221.35,4041.16C1221.35,4003.93 1226.69,3969.05 1237.37,3936.52C1248.05,3903.99 1262.63,3875.75 1281.12,3851.78C1299.62,3827.81 1321.21,3808.98 1345.92,3795.28C1370.63,3781.59 1396.86,3774.74 1424.59,3774.74C1452.33,3774.74 1478.47,3781.59 1503.02,3795.28C1527.57,3808.98 1549.09,3827.92 1567.58,3852.1C1586.07,3876.28 1600.66,3904.53 1611.34,3936.84C1622.02,3969.15 1627.36,4003.93 1627.36,4041.16ZM1553.15,4041.16C1553.15,4017.62 1549.79,3995.47 1543.07,3974.72C1536.36,3953.96 1527.16,3935.77 1515.49,3920.15C1503.82,3904.53 1490.15,3892.12 1474.48,3882.91C1458.81,3873.71 1442.18,3869.11 1424.59,3869.11C1406.68,3869.11 1389.89,3873.71 1374.23,3882.91C1358.56,3892.12 1344.89,3904.53 1333.21,3920.15C1321.54,3935.77 1312.35,3953.96 1305.63,3974.72C1298.92,3995.47 1295.56,4017.62 1295.56,4041.16C1295.56,4064.27 1298.92,4086.31 1305.63,4107.28C1312.35,4128.26 1321.54,4146.55 1333.21,4162.17C1344.89,4177.8 1358.56,4190.21 1374.23,4199.41C1389.89,4208.61 1406.68,4213.21 1424.59,4213.21C1442.18,4213.21 1458.81,4208.61 1474.48,4199.41C1490.15,4190.21 1503.82,4177.8 1515.49,4162.17C1527.16,4146.55 1536.36,4128.26 1543.07,4107.28C1549.79,4086.31 1553.15,4064.27 1553.15,4041.16Z" style="fill:rgb(0,174,191);fill-rule:nonzero;"/>
        </g>
        <g transform="matrix(0.361198,0,0,0.269383,320.827,-646.784)">
            <path d="M2037.68,4203.58C2026.83,4221.56 2015.02,4237.07 2002.25,4250.12C1989.48,4263.18 1976.16,4273.98 1962.27,4282.54C1948.39,4291.1 1934.18,4297.42 1919.66,4301.48C1905.13,4305.55 1890.69,4307.58 1876.33,4307.58C1847.92,4307.58 1821.27,4300.73 1796.37,4287.04C1771.47,4273.34 1749.77,4254.51 1731.26,4230.54C1712.74,4206.58 1698.06,4178.33 1687.21,4145.8C1676.36,4113.28 1670.93,4078.18 1670.93,4040.52C1670.93,4003.71 1676.28,3969.15 1686.97,3936.84C1697.66,3904.53 1712.34,3876.39 1731.02,3852.42C1749.69,3828.45 1771.47,3809.52 1796.37,3795.61C1821.27,3781.7 1847.92,3774.74 1876.33,3774.74C1909.2,3774.74 1939.13,3783.73 1966.1,3801.7C1993.07,3819.68 2015.98,3843.65 2034.81,3873.61L1984.62,3942.3C1970.28,3916.19 1954.19,3897.47 1936.34,3886.12C1918.5,3874.78 1898.58,3869.11 1876.59,3869.11C1858.43,3869.11 1841.38,3873.61 1825.45,3882.59C1809.51,3891.58 1795.57,3903.89 1783.62,3919.51C1771.67,3935.13 1762.27,3953.32 1755.42,3974.08C1748.57,3994.83 1745.14,4016.98 1745.14,4040.52C1745.14,4064.49 1748.56,4086.85 1755.41,4107.61C1762.26,4128.36 1771.66,4146.66 1783.6,4162.49C1795.55,4178.33 1809.48,4190.74 1825.4,4199.73C1841.33,4208.72 1858.37,4213.21 1876.52,4213.21C1893.72,4213.21 1909.97,4208.93 1925.26,4200.37C1940.54,4191.81 1954.24,4180.47 1966.34,4166.35L1966.34,4116.91L1887.82,4116.91L1887.82,4032.17L2037.68,4032.17L2037.68,4203.58Z" style="fill:rgb(0,174,191);fill-rule:nonzero;"/>
        </g>
        <g transform="matrix(0.361198,0,0,0.269383,320.827,-646.784)">
            <path d="M2347.93,4297.95L2095.13,4297.95L2095.13,3785.01L2347.93,3785.01L2347.93,3867.19L2167.91,3867.19L2167.91,3989.8L2345.54,3989.8L2345.54,4070.05L2167.91,4070.05L2167.91,4211.28L2347.93,4211.28L2347.93,4297.95Z" style="fill:rgb(0,174,191);fill-rule:nonzero;"/>
        </g>
    </g>
    <g transform="matrix(0.39682,0,0,0.396604,-4.96025,-4.57552)">
        <g transform="matrix(2.00886,0,0,2.00886,204.247,67.7024)">
            <path d="M0,57.045C-2.084,59.963 -4.526,62.642 -7.265,64.965C-15.839,72.586 -27.093,77.231 -39.479,77.231C-51.447,77.231 -62.463,72.824 -70.919,65.679C-73.658,63.357 -76.099,60.737 -78.243,57.938C-84.435,49.78 -88.127,39.539 -88.127,28.523C-88.127,1.668 -66.334,-20.186 -39.479,-20.186C-12.564,-20.186 9.229,1.668 9.229,28.523C9.229,39.181 5.776,49.006 0,57.045M-39.479,-27.51C-70.383,-27.51 -95.451,-2.441 -95.451,28.523C-95.451,42.576 -90.33,55.378 -81.815,65.143C-79.493,67.823 -76.992,70.324 -74.134,72.527C-64.607,80.029 -52.519,84.555 -39.479,84.555C-26.021,84.555 -13.636,79.791 -3.93,71.872C-1.191,69.609 1.369,67.108 3.632,64.309C11.671,54.603 16.553,42.159 16.553,28.523C16.553,-2.441 -8.515,-27.51 -39.479,-27.51" style="fill:rgb(0,174,191);fill-rule:nonzero;"/>
        </g>
        <g transform="matrix(2.00886,0,0,2.00886,126.641,214.015)">
            <path d="M0,-51.681L-0.557,-52.327L-1.114,-51.681C-12.236,-38.896 -21.829,-24.856 -29.691,-9.914C-29.114,-9.433 -28.518,-8.949 -27.88,-8.525C-27.583,-8.167 -27.285,-7.989 -26.928,-7.81C-26.213,-7.274 -25.499,-6.798 -24.725,-6.321C-24.367,-6.023 -24.01,-5.785 -23.593,-5.607C-22.641,-5.011 -21.628,-4.476 -20.616,-3.999C-19.425,-3.403 -18.234,-2.868 -16.984,-2.391C-16.984,-2.391 -16.984,-2.332 -16.924,-2.391C-15.733,-1.915 -14.542,-1.498 -13.292,-1.141C-12.994,-1.022 -12.696,-0.962 -12.399,-0.903C-11.387,-0.605 -10.374,-0.367 -9.362,-0.188C-8.052,0.11 -6.742,0.288 -5.432,0.407C-3.943,0.586 -2.395,0.646 -0.847,0.646C2.071,0.646 4.988,0.348 7.728,-0.188C8.978,-0.426 10.228,-0.724 11.479,-1.141C11.657,-1.141 11.777,-1.141 11.896,-1.2C13.206,-1.617 14.516,-2.034 15.766,-2.57C17.076,-3.106 18.327,-3.642 19.577,-4.297C20.589,-4.833 21.661,-5.428 22.674,-6.083C22.971,-6.143 23.15,-6.321 23.388,-6.44C24.46,-7.155 25.472,-7.929 26.484,-8.703C27.162,-9.202 27.792,-9.711 28.41,-10.236C20.533,-25.082 10.994,-39.027 0,-51.681" style="fill:rgb(0,174,191);fill-rule:nonzero;"/>
        </g>
        <g transform="matrix(2.00886,0,0,2.00886,124.94,177.136)">
            <path d="M0,-70.91C-24.771,-70.91 -44.897,-50.784 -44.897,-25.953C-44.897,-24.405 -44.838,-22.916 -44.659,-21.428L-44.659,-21.249C-44.54,-19.999 -44.361,-18.808 -44.123,-17.617C-44.064,-17.2 -43.945,-16.783 -43.885,-16.426C-43.587,-15.116 -43.29,-13.865 -42.873,-12.615C-42.396,-10.948 -41.801,-9.399 -41.087,-7.851C-40.67,-6.78 -40.134,-5.708 -39.598,-4.696C-39.479,-4.576 -39.419,-4.398 -39.359,-4.279C-38.824,-3.266 -38.228,-2.314 -37.514,-1.361C-37.335,-0.944 -37.037,-0.587 -36.799,-0.23C-36.744,-0.151 -36.683,-0.078 -36.628,0C-27.364,-16.869 -16.1,-32.505 -3.09,-46.486L0.29,-50.081L3.662,-46.486C16.606,-32.634 27.789,-17.125 36.969,-0.389C37.128,-0.616 37.298,-0.834 37.454,-1.063C38.764,-3.028 39.955,-5.172 40.908,-7.375C41.205,-7.911 41.444,-8.506 41.622,-9.042C42.099,-10.233 42.575,-11.365 42.932,-12.615C43.29,-13.746 43.587,-14.937 43.885,-16.128C44.004,-16.664 44.123,-17.2 44.183,-17.795C44.421,-18.867 44.599,-19.999 44.659,-21.13C44.719,-21.249 44.719,-21.368 44.719,-21.547C44.897,-22.976 44.957,-24.465 44.957,-25.953C44.957,-50.784 24.83,-70.91 0,-70.91" style="fill:rgb(0,174,191);fill-rule:nonzero;"/>
        </g>
    </g>
</svg>
